<?xml version="1.0" encoding="UTF-8" standalone="no"?>
<svg
   xmlns:dc="http://purl.org/dc/elements/1.1/"
   xmlns:cc="http://creativecommons.org/ns#"
   xmlns:rdf="http://www.w3.org/1999/02/22-rdf-syntax-ns#"
   xmlns:svg="http://www.w3.org/2000/svg"
   xmlns="http://www.w3.org/2000/svg"
   xmlns:sodipodi="http://sodipodi.sourceforge.net/DTD/sodipodi-0.dtd"
   xmlns:inkscape="http://www.inkscape.org/namespaces/inkscape"
   width="210mm"
   height="297mm"
   viewBox="0 0 210 297"
   version="1.1"
   id="svg8"
   inkscape:export-filename="/home/diegton/gamesDevelopment/engine/images/background.png"
   inkscape:export-xdpi="96"
   inkscape:export-ydpi="96"
   inkscape:version="1.0.1 (3bc2e813f5, 2020-09-07)"
   sodipodi:docname="drawing.svg">
  <defs
     id="defs2" />
  <sodipodi:namedview
     id="base"
     pagecolor="#ffcccc"
     bordercolor="#666666"
     borderopacity="1.0"
     inkscape:pageopacity="0"
     inkscape:pageshadow="2"
     inkscape:zoom="1.0218833"
     inkscape:cx="217.7625"
     inkscape:cy="900.25274"
     inkscape:document-units="mm"
     inkscape:current-layer="layer1"
     inkscape:document-rotation="0"
     showgrid="true"
     inkscape:snap-midpoints="true"
     inkscape:snap-intersection-paths="true"
     showguides="true"
     inkscape:guide-bbox="true"
     inkscape:object-paths="true"
     inkscape:window-width="1366"
     inkscape:window-height="739"
     inkscape:window-x="0"
     inkscape:window-y="0"
     inkscape:window-maximized="1"
     inkscape:pagecheckerboard="false">
    <sodipodi:guide
       position="17.244033,119.72666"
       orientation="1,0"
       id="guide1134" />
  </sodipodi:namedview>
  <metadata
     id="metadata5">
    <rdf:RDF>
      <cc:Work
         rdf:about="">
        <dc:format>image/svg+xml</dc:format>
        <dc:type
           rdf:resource="http://purl.org/dc/dcmitype/StillImage" />
        <dc:title></dc:title>
      </cc:Work>
    </rdf:RDF>
  </metadata>
  <g
     inkscape:label="Layer 1"
     inkscape:groupmode="layer"
     id="layer1">
    <rect
       style="fill:#50beff;fill-opacity:1;stroke:none;stroke-width:0.199066;stroke-opacity:1"
       id="rect833"
       width="158.75"
       height="145.52083"
       x="17.244034"
       y="31.752518"
       inkscape:export-xdpi="95.412682"
       inkscape:export-ydpi="95.412682"
       inkscape:export-filename="/home/diegton/gamesDevelopment/engine/images/background.png" />
    <path
       id="path876"
       style="fill:#f9f9f9;fill-opacity:1;stroke:none;stroke-width:0.499999;stroke-miterlimit:4;stroke-dasharray:none;stroke-opacity:1"
       d="m 43.365802,227.55246 a 11.387815,11.350295 0 0 1 11.116853,8.88957 8.3086841,8.281309 0 0 1 6.04633,3.796 4.5571501,4.5421355 0 0 1 1.08996,-0.13232 4.5571501,4.5421355 0 0 1 4.55747,4.54246 4.5571501,4.5421355 0 0 1 -4.55747,4.54211 4.5571501,4.5421355 0 0 1 -1.06999,-0.12701 8.3086841,8.281309 0 0 1 -7.04082,3.8842 8.3086841,8.281309 0 0 1 -6.604293,-3.25645 11.387815,11.350295 0 0 1 -0.0362,0.0119 5.0680045,5.0513067 0 0 1 -4.17618,2.18965 5.0680045,5.0513067 0 0 1 -3.67811,-1.57649 5.2294053,5.2121757 0 0 1 -4.608375,2.74908 5.2294053,5.2121757 0 0 1 -4.91446,-3.43087 8.8013114,5.7884063 0 0 1 -3.42692,0.45696 8.8013114,5.7884063 0 0 1 -8.80118,-5.78832 8.8013114,5.7884063 0 0 1 8.80118,-5.78866 8.8013114,5.7884063 0 0 1 0.53533,0.011 4.5571501,4.5421355 0 0 1 4.46531,-3.63615 4.5571501,4.5421355 0 0 1 1.55043,0.27093 11.387815,11.350295 0 0 1 10.751205,-7.60756 z"
       inkscape:export-xdpi="95.412682"
       inkscape:export-ydpi="95.412682"
       inkscape:export-filename="/home/diegton/gamesDevelopment/engine/images/background.png" />
    <path
       id="path849"
       style="fill:#f9f9f9;fill-opacity:1;stroke:none;stroke-width:0.499999;stroke-miterlimit:4;stroke-dasharray:none;stroke-opacity:1"
       d="m 52.668571,182.03583 a 17.687513,17.687513 0 0 0 -17.266647,13.8529 12.905018,12.905018 0 0 0 -9.391158,5.9154 7.0781491,7.0781491 0 0 0 -1.692917,-0.20619 7.0781491,7.0781491 0 0 0 -7.078639,7.07864 7.0781491,7.0781491 0 0 0 7.078639,7.07812 7.0781491,7.0781491 0 0 0 1.661914,-0.19792 12.905018,12.905018 0 0 0 10.935766,6.05286 12.905018,12.905018 0 0 0 10.257771,-5.07462 17.687513,17.687513 0 0 0 0.05633,0.0186 7.8716062,7.8716062 0 0 0 6.486425,3.41219 7.8716062,7.8716062 0 0 0 5.712829,-2.4567 8.1222934,8.1222934 0 0 0 7.1577,4.28398 8.1222934,8.1222934 0 0 0 7.63313,-5.34644 13.670165,9.0202511 0 0 0 5.32267,0.7121 13.670165,9.0202511 0 0 0 13.66997,-9.02012 13.670165,9.0202511 0 0 0 -13.66997,-9.02064 13.670165,9.0202511 0 0 0 -0.83147,0.0171 7.0781491,7.0781491 0 0 0 -6.9355,-5.66632 7.0781491,7.0781491 0 0 0 -2.40812,0.4222 17.687513,17.687513 0 0 0 -16.69872,-11.85509 z"
       inkscape:export-xdpi="95.412682"
       inkscape:export-ydpi="95.412682"
       inkscape:export-filename="/home/diegton/gamesDevelopment/engine/images/background.png" />
    <path
       style="fill:#000000;stroke-width:1"
       d="m 20.424135,290.18118 v -0.80306 h -0.803054 -0.803054 v -2.40916 -2.40916 H 18.01387 17.209713 l 0.01716,-1.62217 0.01716,-1.62217 0.786993,-0.018 0.786993,-0.018 v -1.572 -1.57201 h -0.803648 -0.803649 l 0.01666,-3.22828 0.01666,-3.22827 0.785875,-0.018 0.785875,-0.018 0.01718,-1.58808 0.01718,-1.58808 0.785031,-0.018 0.78503,-0.018 0.01802,-0.78502 0.01802,-0.78504 1.588078,-0.0172 1.588079,-0.0172 0.01803,-0.78588 0.01803,-0.78587 3.228279,-0.0167 3.22827,-0.0166 v 0.80365 0.80364 h 1.60611 1.60611 v 0.80306 0.80305 h 0.80305 0.80306 v 1.60611 1.6061 h 0.80305 0.803061 v 0.83518 0.83518 h -0.803062 -0.80305 v 2.40916 2.40916 h -0.80306 -0.80305 v 1.57399 1.57398 h 0.80305 0.80306 v 2.40916 2.40916 h 0.80305 0.80306 v 0.83518 0.83518 h -0.80306 -0.80305 v 0.80305 0.80305 h -0.80306 -0.80305 v 0.80306 0.80305 h -1.63823 -1.63823 v -0.80305 -0.80306 h -0.80305 -0.80306 v -0.80305 -0.80305 h -0.77093 -0.77093 v 0.80305 0.80305 h -1.60611 -1.606107 v 0.80306 0.80305 h -1.63823 -1.63823 z m 6.424435,-3.24434 v -0.77093 h -1.57399 -1.573985 v 0.77093 0.77093 h 1.573985 1.57399 z m 3.21221,0 v -0.77093 h -0.77093 -0.77093 v 0.77093 0.77093 h 0.77093 0.77093 z m -9.636645,-4.01527 v -1.57398 h -0.770932 -0.770932 v 1.57398 1.57399 h 0.770932 0.770932 z m 12.848865,0 v -1.57398 h -1.57399 -1.57398 v 1.57398 1.57399 h 1.57398 1.57399 z m -3.19813,-2.42522 0.018,-0.78699 0.78699,-0.018 0.78699,-0.018 v -0.76896 -0.76895 H 30.8627 30.05854 l 0.0172,-1.62217 0.0172,-1.62217 0.81911,-0.018 0.81912,-0.018 v 1.60803 1.60803 h 0.77093 0.77093 v -2.40917 -2.40916 h 0.80306 0.80305 v -0.77093 -0.77093 h -0.80305 -0.80306 v -1.60611 -1.60611 h -1.60611 -1.6061 v -0.80305 -0.80305 h -3.1801 -3.180091 v 0.80305 0.80305 h -1.606102 -1.606108 v 1.60611 1.60611 h -0.803054 -0.803054 v 3.18009 3.1801 h 0.803054 0.803054 v 0.80305 0.80305 h 0.803054 0.803054 v 0.80306 0.80305 h 3.981173 3.98117 z m 19.25921,9.68483 v -0.80306 h -0.803061 -0.80305 v -1.6061 -1.60611 h -0.803828 -0.80382 l 0.0168,-2.42522 0.0168,-2.42523 0.78699,-0.018 0.78699,-0.018 v -0.76895 -0.76895 h -0.80305 -0.803061 v -0.80306 -0.80305 h -0.803037 -0.803061 v -0.80305 -0.80306 h -0.80364 -0.803649 l 0.0167,-3.22827 0.0167,-3.22828 0.785869,-0.018 0.785881,-0.018 0.0172,-1.58808 0.0172,-1.58808 0.785029,-0.018 0.785032,-0.018 0.01799,-0.78503 0.01799,-0.78503 1.588079,-0.0172 1.588079,-0.0172 0.01799,-0.78588 0.01799,-0.78587 3.228308,-0.0166 3.228282,-0.0167 v 0.80365 0.80364 h 1.606108 1.60611 v 0.80306 0.80305 h 0.803048 0.80305 v 1.60611 1.60611 h 0.803061 0.803047 v 0.83517 0.83518 h -0.803047 -0.803061 v 2.40916 2.40916 h -0.80305 -0.803048 v 0.80306 0.80305 h -0.80306 -0.80305 v 0.80305 0.80306 h -0.803058 -0.803061 v 0.77093 0.77093 h 0.803061 0.803047 v 1.63823 1.63823 h -0.803047 -0.803061 v 0.77093 0.77093 h 0.803061 0.803047 v 1.63823 1.63823 h -0.803047 -0.803061 v 0.80306 0.80305 H 52.57838 49.33404 Z m 1.606111,-3.24434 v -0.77093 H 50.16925 49.398321 v 0.77093 0.77093 h 0.770929 0.770941 z m 4.818319,0 v -0.77093 h -0.77093 -0.77093 v 0.77093 0.77093 h 0.77093 0.77093 z m -1.606108,-2.40916 v -1.57399 h -1.573983 -1.573987 v 1.57399 1.57398 h 1.573987 1.573983 z m 1.620189,-5.63744 0.01799,-0.78699 0.78699,-0.018 0.787,-0.018 v -0.76895 -0.76896 h -0.804159 -0.804159 l 0.0172,-1.62217 0.0172,-1.62217 0.819121,-0.018 0.81911,-0.018 v 1.60803 1.60803 h 0.77093 0.77094 v -2.40916 -2.40917 h 0.803047 0.80305 v -0.77093 -0.77093 h -0.80305 -0.803047 v -1.60611 -1.6061 h -1.606115 -1.606108 v -0.80306 -0.80305 H 52.57844 49.398339 v 0.80305 0.80306 h -1.6061 -1.606108 v 1.6061 1.60611 H 45.38307 44.58002 v 3.18009 3.1801 h 0.80305 0.803061 v 0.80305 0.80306 h 0.80305 0.803047 v 0.80305 0.80305 h 3.981173 3.981169 z m 16.046992,11.29094 v -0.80306 h -0.804158 -0.804162 l 0.0172,-1.62216 0.0172,-1.62217 0.787001,-0.018 0.786989,-0.018 v -0.76896 -0.76895 h -0.804161 -0.804159 l 0.0172,-1.62217 0.0172,-1.62217 0.787001,-0.018 0.78699,-0.018 v -0.76895 -0.76895 h -0.80305 -0.803061 v -0.80306 -0.80305 h -0.803648 -0.80364 l 0.01669,-3.22828 0.01669,-3.22827 0.785871,-0.018 0.78587,-0.018 0.0172,-1.58808 0.0172,-1.58808 0.78504,-0.018 0.785032,-0.018 0.01799,-0.78502 0.01799,-0.78504 1.588079,-0.0172 1.588081,-0.0172 0.018,-0.78588 0.018,-0.78587 3.22828,-0.0167 3.22826,-0.0166 v 0.80365 0.80364 h 1.60612 1.60611 v 0.80306 0.80305 h 0.80305 0.80306 v 1.60611 1.6061 h 0.80305 0.80305 v 0.83518 0.83518 h -0.80305 -0.80305 v 2.40916 2.40916 h -0.80306 -0.80305 v 1.57399 1.57398 h 0.80305 0.80306 v 2.40916 2.40916 h 0.80305 0.80305 v 0.83518 0.83518 h -0.80305 -0.80305 v 0.80305 0.80305 h -0.80306 -0.80305 v 0.80306 0.80305 h -1.63823 -1.63823 v -0.80305 -0.80306 h -0.80306 -0.80305 v -0.80305 -0.80305 h -0.77093 -0.77093 v 0.80305 0.80305 h -1.60611 -1.60611 v 0.80306 0.80305 H 73.457951 71.81972 Z m 6.424425,-3.24434 v -0.77093 h -1.57398 -1.57399 v 0.77093 0.77093 h 1.57399 1.57398 z m 3.21223,0 v -0.77093 h -0.77094 -0.77093 v 0.77093 0.77093 h 0.77093 0.77094 z m -6.42443,-4.01527 v -1.57398 h -1.573993 -1.573991 v 1.57398 1.57399 h 1.573991 1.573993 z m 9.63663,0 v -1.57398 h -1.57398 -1.57399 v 0.77093 0.77093 h 0.80307 0.80305 v 0.80305 0.80306 h 0.77093 0.77092 z m -3.19813,-2.42522 0.018,-0.78699 0.78699,-0.018 0.787,-0.018 v -0.76896 -0.76895 h -0.80415 -0.80417 l 0.0172,-1.62217 0.0172,-1.62217 0.81912,-0.018 0.81911,-0.018 v 1.60803 1.60803 h 0.77093 0.77094 v -2.40917 -2.40916 h 0.80305 0.80305 v -0.77093 -0.77093 h -0.80305 -0.80305 v -1.60611 -1.60611 h -1.6061 -1.60612 v -0.80305 -0.80305 h -3.18009 -3.18008 v 0.80305 0.80305 h -1.606114 -1.606111 v 1.60611 1.60611 h -0.80305 -0.803061 v 3.18009 3.1801 h 0.803061 0.80305 v 0.80305 0.80305 h 1.606111 1.606114 v 0.80306 0.80305 h 3.17812 3.1781 z m 19.259222,9.68483 v -0.80306 h -0.803052 -0.80306 v -1.6061 -1.60611 h -0.80382 -0.80384 l 0.0168,-2.42522 0.0168,-2.42523 0.78699,-0.018 0.787,-0.018 v -0.76895 -0.76895 h -0.80305 -0.80305 v -0.80306 -0.80305 h -0.80306 -0.80305 v -0.80305 -0.80306 h -0.80365 -0.80366 l 0.0167,-3.22827 0.0166,-3.22828 0.78589,-0.018 0.78587,-0.018 0.0172,-1.58808 0.0172,-1.58808 0.78503,-0.018 0.78503,-0.018 0.018,-0.78503 0.018,-0.78503 1.58808,-0.0172 1.588072,-0.0172 0.018,-0.78588 0.018,-0.78587 3.22832,-0.0166 3.22829,-0.0167 v 0.80365 0.80364 h 1.6061 1.60611 v 0.80306 0.80305 h 0.80306 0.80305 v 1.60611 1.60611 h 0.80306 0.80305 v 0.83517 0.83518 h -0.80305 -0.80306 v 2.40916 2.40916 h -0.80305 -0.80306 v 0.80306 0.80305 h -0.80306 -0.80305 v 0.80305 0.80306 h -0.80306 -0.80304 v 0.77093 0.77093 h 0.80304 0.80306 v 1.63823 1.63823 h -0.80306 -0.80304 v 0.77093 0.77093 h 0.80304 0.80306 v 1.63823 1.63823 h -0.80306 -0.80304 v 0.80306 0.80305 h -3.24435 -3.24433 z m 1.6061,-3.24434 v -0.77093 h -0.77093 -0.77093 v 0.77093 0.77093 h 0.77093 0.77093 z m 4.81833,0 v -0.77093 h -0.77093 -0.77093 v 0.77093 0.77093 h 0.77093 0.77093 z m -1.6061,-2.40916 v -1.57399 h -1.57399 -1.57399 v 1.57399 1.57398 h 1.57399 1.57399 z m 1.62019,-5.63744 0.018,-0.78699 0.78699,-0.018 0.78699,-0.018 v -0.76895 -0.76896 h -0.80416 -0.80415 l 0.0172,-1.62217 0.0172,-1.62217 0.81911,-0.018 0.81912,-0.018 v 1.60803 1.60803 h 0.77093 0.77093 v -2.40916 -2.40917 h 0.80305 0.80306 v -0.77093 -0.77093 h -0.80306 -0.80305 v -1.60611 -1.6061 h -1.60611 -1.60611 v -0.80306 -0.80305 h -3.1801 -3.18009 v 0.80305 0.80306 h -1.606112 -1.60611 v 1.6061 1.60611 h -0.80305 -0.80306 v 3.18009 3.1801 h 0.80306 0.80305 v 0.80305 0.80306 h 0.80306 0.80305 v 0.80305 0.80305 h 3.981172 3.98117 z"
       id="path1730"
       sodipodi:nodetypes="cccccccccccccccccccccccccccccccccccccccccccccccccccccccccccccccccccccccccccccccccccccccccccccccccccccccccccccccccccccccccccccccccccccccccccccccccccccccccccccccccccccccccccccccccccccccccccccccccccccccccccccccccccccccccccccccccccccccccccccccccccccccccccccccccccccccccccccccccccccccccccccccccccccccccccccccccccccccccccccccccccccccccccccccccccccccccccccccccccccccccccccccccccccccccccccccccccccccccccccccccccccccccccccccccccccccccccccccccccccccccccccccccccccccccccccccccccccccccccccccccccccccccccccccccccccccccccccccccccccccccccccccccccccccccccccccccccccccccccccccccccccccccccccccccccccccccccccccccccccccccccccccccccccccccccccccccccccccccccccccccccccccccccccccccccccccccccccccccccccccccccccccccccccccccccccccccc" />
  </g>
</svg>
