<?xml version="1.0" encoding="UTF-8" standalone="no"?>
<svg
   xmlns:dc="http://purl.org/dc/elements/1.1/"
   xmlns:cc="http://creativecommons.org/ns#"
   xmlns:rdf="http://www.w3.org/1999/02/22-rdf-syntax-ns#"
   xmlns:svg="http://www.w3.org/2000/svg"
   xmlns="http://www.w3.org/2000/svg"
   xmlns:sodipodi="http://sodipodi.sourceforge.net/DTD/sodipodi-0.dtd"
   xmlns:inkscape="http://www.inkscape.org/namespaces/inkscape"
   width="210mm"
   height="297mm"
   viewBox="0 0 210 297"
   version="1.1"
   id="svg8"
   inkscape:version="1.0.1 (3bc2e813f5, 2020-09-07)"
   sodipodi:docname="old_icons.svg">
  <defs
     id="defs2" />
  <sodipodi:namedview
     id="base"
     pagecolor="#ffffff"
     bordercolor="#666666"
     borderopacity="1.0"
     inkscape:pageopacity="0.0"
     inkscape:pageshadow="2"
     inkscape:zoom="0.46603469"
     inkscape:cx="24.472901"
     inkscape:cy="252.15471"
     inkscape:document-units="mm"
     inkscape:current-layer="layer1"
     inkscape:document-rotation="0"
     showgrid="false"
     inkscape:window-width="1366"
     inkscape:window-height="694"
     inkscape:window-x="0"
     inkscape:window-y="0"
     inkscape:window-maximized="1" />
  <metadata
     id="metadata5">
    <rdf:RDF>
      <cc:Work
         rdf:about="">
        <dc:format>image/svg+xml</dc:format>
        <dc:type
           rdf:resource="http://purl.org/dc/dcmitype/StillImage" />
        <dc:title></dc:title>
      </cc:Work>
    </rdf:RDF>
  </metadata>
  <g
     inkscape:label="Layer 1"
     inkscape:groupmode="layer"
     id="layer1">
    <path
       style="fill:#ffe680;stroke:#e4c400;stroke-width:3.26498;stroke-linejoin:round;stroke-opacity:1"
       d="m 64.292634,41.648375 c -2.31374,-0.19465 -5.04232,-0.50126 -5.58401,-0.62746 -0.25174,-0.0587 -1.07561,-0.21971 -1.83082,-0.35789 -2.32084,-0.42465 -4.21089,-0.92233 -4.21089,-1.10878 0,-0.0335 0.43418,-0.66598 0.96484,-1.40562 0.53066,-0.73963 1.45752,-2.19166 2.05968,-3.22673 l 1.09483,-1.88195 0.91541,0.0902 c 0.50348,0.0496 1.49212,0.17742 2.19699,0.28406 5.30631,0.80285 17.56559,0.80785 22.42757,0.009 0.65451,-0.10752 1.80793,-0.27563 2.56315,-0.37358 0.75521,-0.098 1.57908,-0.25489 1.83082,-0.34876 0.25174,-0.0939 0.86964,-0.2259 1.37311,-0.29343 0.50348,-0.0675 0.9978,-0.18403 1.0985,-0.25889 0.10069,-0.0749 0.50218,-0.19369 0.89218,-0.26406 0.39,-0.0704 0.84313,-0.19774 1.00695,-0.28307 0.16382,-0.0853 0.87456,-0.33573 1.57943,-0.55646 1.27532,-0.39936 3.62232,-1.52749 4.085597,-1.96382 0.133637,-0.12587 0.360677,-0.22885 0.504537,-0.22885 0.216887,0 0.261327,0.55479 0.260327,3.24971 -0.001,3.65152 -0.0496,3.81767 -1.387611,4.78193 -1.14481,0.82499 -3.61388,2.03788 -4.14852,2.03788 -0.13642,0 -0.32632,0.0746 -0.42198,0.16573 -0.28025,0.26705 -3.29496,1.04067 -6.21564,1.59503 -1.73089,0.32853 -5.06113,0.74109 -7.87253,0.97526 -2.36042,0.19661 -10.80402,0.19048 -13.18192,-0.01 z"
       id="path873"
       inkscape:export-filename="/home/diegton/gamesDevelopment/autoRTS/public/images/gold_icon.png"
       inkscape:export-xdpi="96"
       inkscape:export-ydpi="96" />
    <path
       style="fill:#ffe680;stroke:#e4c400;stroke-width:3.26498;stroke-linejoin:round;stroke-opacity:1"
       d="m 85.356717,41.713725 c 0.0636,-0.10293 0.40144,-0.24076 0.75074,-0.30628 0.34929,-0.0655 0.86512,-0.23914 1.14628,-0.38579 0.28117,-0.14666 0.60919,-0.26716 0.72895,-0.26778 0.26576,-10e-4 2.25787,-1.02599 3.260814,-1.67715 1.162854,-0.75498 1.733181,-1.37311 2.302358,-2.49533 0.526057,-1.0372 0.530787,-1.07536 0.533087,-4.2962 0.002,-2.70635 0.0464,-3.24971 0.266137,-3.24971 0.1451,0 0.30873,0.0727 0.363617,0.16148 0.0549,0.0888 0.657047,0.2205 1.338144,0.29263 0.681087,0.0721 1.320721,0.19612 1.421421,0.27553 0.10069,0.0794 0.550657,0.20506 0.999904,0.27925 0.44926,0.0742 0.943577,0.20014 1.098484,0.2799 0.15492,0.0798 0.858377,0.32483 1.563247,0.5446 3.13013,0.97594 5.95016,2.95714 5.95016,4.18026 0,0.65086 -1.36568,2.17234 -2.33429,2.6006 -0.32726,0.14469 -0.59502,0.32536 -0.59502,0.40147 0,0.0761 -0.10298,0.1389 -0.22885,0.13952 -0.12587,5.3e-4 -0.46661,0.12512 -0.7572,0.27666 -1.30089,0.67844 -4.795558,1.72055 -7.252626,2.16274 -0.654517,0.11779 -1.272411,0.26736 -1.373111,0.33239 -0.10069,0.065 -0.924554,0.17801 -1.830811,0.25106 -0.906244,0.0731 -1.771308,0.19676 -1.922348,0.2749 -0.446297,0.23085 -5.563777,0.44318 -5.429087,0.22525 z"
       id="path875"
       inkscape:export-filename="/home/diegton/gamesDevelopment/autoRTS/public/images/gold_icon.png"
       inkscape:export-xdpi="96"
       inkscape:export-ydpi="96" />
    <path
       style="fill:#ffe680;stroke:#e4c400;stroke-width:3.26498;stroke-linejoin:round;stroke-opacity:1"
       d="m 67.496574,59.68826 c -0.65452,-0.0827 -2.42584,-0.23088 -3.93627,-0.32937 -2.71603,-0.17711 -6.53949,-0.63678 -6.83966,-0.82229 -0.0853,-0.0527 -0.76457,-0.18949 -1.50942,-0.30389 -0.74485,-0.11439 -1.43666,-0.27248 -1.53736,-0.3513 -0.10069,-0.0788 -0.55382,-0.20313 -1.00695,-0.27624 -0.45313,-0.0731 -0.90626,-0.19651 -1.00695,-0.27419 -0.1007,-0.0777 -0.46874,-0.20242 -0.817866,-0.2772 -0.349126,-0.0748 -0.761061,-0.20366 -0.915411,-0.2864 -0.154347,-0.0828 -0.816147,-0.37895 -1.470665,-0.65823 -0.654521,-0.27929 -1.288098,-0.59245 -1.407951,-0.69592 -0.119854,-0.10347 -0.502978,-0.3941 -0.851384,-0.64584 -1.338887,-0.9674 -1.40231,-1.18984 -1.40231,-4.9181 v -3.33923 l 0.595018,0.43611 c 0.865283,0.6342 3.734168,1.96259 4.238559,1.96259 0.160999,0 0.292725,0.0685 0.292725,0.15224 0,0.0837 0.391337,0.25404 0.86964,0.37847 2.842885,0.73955 3.943665,0.99328 5.172075,1.19214 0.75521,0.12227 1.4967,0.27323 1.64774,0.33548 0.27245,0.11227 2.41676,0.37918 5.58401,0.69504 2.77894,0.27713 30.59679,0.16507 31.12397,-0.12539 0.20139,-0.11096 1.004663,-0.24095 1.78505,-0.28887 l 1.418881,-0.0871 v 1.00362 c 0,1.22461 -0.415857,1.97235 -1.509621,2.71438 -0.428387,0.29063 -0.82009,0.57309 -0.87044,0.62769 -0.0504,0.0546 -0.62706,0.32681 -1.28157,0.60489 -0.65452,0.27809 -1.31632,0.57331 -1.47067,0.65606 -0.15435,0.0827 -0.56628,0.21162 -0.91541,0.2864 -0.34913,0.0748 -0.71717,0.20113 -0.81786,0.28077 -0.1007,0.0796 -0.57544,0.20322 -1.05498,0.27461 -0.47954,0.0714 -0.91216,0.19496 -0.96138,0.2746 -0.0492,0.0796 -0.52194,0.19942 -1.05047,0.26617 -0.52854,0.0668 -1.22034,0.20167 -1.53733,0.29982 -0.9242,0.28615 -4.33397,0.71397 -7.20465,0.90396 -1.46008,0.0966 -3.31806,0.25766 -4.12885,0.35784 -1.69373,0.20928 -5.47742,0.19708 -7.22224,-0.0233 z"
       id="path881"
       inkscape:export-filename="/home/diegton/gamesDevelopment/autoRTS/public/images/gold_icon.png"
       inkscape:export-xdpi="96"
       inkscape:export-ydpi="96" />
    <path
       style="fill:#ffe680;stroke:#e4c400;stroke-width:3.26498;stroke-linejoin:round;stroke-opacity:1"
       d="m 73.982403,51.981225 c -2.62189,-0.0952 -10.51083,-1.1969 -11.07647,-1.54685 -0.1007,-0.0623 -0.51263,-0.17112 -0.91542,-0.24183 -2.01804,-0.35427 -6.22894,-2.06042 -7.12895,-2.88847 -0.19521,-0.17959 -0.4188,-0.32654 -0.49688,-0.32654 -0.0781,0 -0.3509,-0.30748 -0.60626,-0.68328 -0.36112,-0.53143 -0.46431,-0.91235 -0.46431,-1.7139 0,-0.96732 0.0253,-1.02633 0.41193,-0.96107 2.28467,0.3856 7.84846,0.5234 16.98088,0.42055 0.75521,-0.008 3.10186,0.0796 5.21477,0.19578 2.81214,0.15464 4.82374,0.15875 7.50637,0.0154 4.57729,-0.24468 7.684188,-0.51366 8.516385,-0.73731 0.352427,-0.0947 1.423451,-0.29689 2.380045,-0.44929 2.387358,-0.38034 5.141153,-1.05362 6.160897,-1.50628 0.3173,-0.14085 0.66857,-0.25609 0.78058,-0.25609 0.11202,0 0.34673,-0.0782 0.52158,-0.17373 0.17485,-0.0956 0.85342,-0.40124 1.50794,-0.67933 0.65452,-0.27809 1.23123,-0.55607 1.28158,-0.61773 0.0503,-0.0617 0.21512,-0.16674 0.36616,-0.23349 0.15104,-0.0668 0.45999,-0.25616 0.68656,-0.42091 l 0.41193,-0.29954 v 3.41328 3.41328 l -0.96118,0.96243 c -1.05018,1.05156 -2.86544,2.03203 -4.98898,2.69468 -0.704864,0.21995 -1.446341,0.46915 -1.647741,0.55378 -0.422197,0.17742 -1.681408,0.47377 -3.386999,0.79713 -0.654507,0.12409 -1.313604,0.27622 -1.464651,0.33806 -0.43433,0.17783 -5.350486,0.71903 -7.964046,0.87674 -2.24066,0.13521 -8.58499,0.16499 -11.62572,0.0546 z"
       id="path877"
       inkscape:export-filename="/home/diegton/gamesDevelopment/autoRTS/public/images/gold_icon.png"
       inkscape:export-xdpi="96"
       inkscape:export-ydpi="96" />
    <path
       style="fill:#ffe680;stroke:#e4c400;stroke-width:3.26498;stroke-linejoin:round;stroke-opacity:1"
       d="m 63.560304,51.980835 c -1.57043,-0.0978 -6.94281,-0.81688 -7.23905,-0.96893 -0.15506,-0.0796 -0.73177,-0.20523 -1.28158,-0.27921 -0.5498,-0.074 -1.08203,-0.19836 -1.18273,-0.27639 -0.10069,-0.078 -0.55382,-0.20171 -1.00695,-0.27483 -0.45313,-0.0731 -0.90626,-0.1965 -1.00695,-0.27418 -0.1007,-0.0777 -0.45943,-0.20038 -0.797193,-0.27266 -0.804503,-0.17217 -3.428775,-1.28614 -3.688323,-1.56564 -0.05035,-0.0542 -0.353463,-0.26072 -0.673587,-0.45888 l -0.582049,-0.3603 1.222835,-1.28646 c 0.67256,-0.70755 1.552382,-1.68815 1.955165,-2.1791 0.402781,-0.49095 0.958093,-1.15729 1.23403,-1.48075 l 0.5017,-0.5881 1.054502,0.2669 c 1.40692,0.35611 3.18036,0.74728 4.57883,1.00995 l 1.14426,0.21493 v 1.41667 c 0,0.77916 0.0733,1.46194 0.1628,1.51728 0.0895,0.0553 0.21677,0.31563 0.28272,0.57842 0.17883,0.7125 0.8038,1.47121 1.88315,2.28613 1.11293,0.84027 3.2891,1.99746 3.75882,1.99877 0.17621,5.3e-4 0.32039,0.0741 0.32039,0.1636 0,0.0895 0.30895,0.22044 0.68656,0.29101 0.3776,0.0706 0.76894,0.19445 0.86964,0.27529 0.10069,0.0808 0.34785,0.1875 0.54924,0.23701 0.3941,0.0969 -1.25169,0.10254 -2.74623,0.01 z"
       id="path879"
       inkscape:export-filename="/home/diegton/gamesDevelopment/autoRTS/public/images/gold_icon.png"
       inkscape:export-xdpi="96"
       inkscape:export-ydpi="96" />
    <path
       style="opacity:0.996;fill:#ffe680;stroke:#e4c400;stroke-width:2;stroke-linejoin:round;stroke-miterlimit:4;stroke-dasharray:none;stroke-opacity:1"
       d="m 17.216687,54.302375 c -1.31323,-0.52996 -1.295175,-3.0225 0.04377,-6.04326 0.478478,-1.07947 2.10624,-4.22889 2.270937,-4.39383 0.05035,-0.0504 0.581036,-0.83317 1.179306,-1.73942 0.93448,-1.41555 3.071985,-4.31229 3.666491,-4.96882 0.10393,-0.11478 0.724479,-0.85626 1.378997,-1.64774 1.348574,-1.63077 8.063691,-8.40303 9.378424,-9.45822 0.475803,-0.38187 0.970126,-0.79346 1.098494,-0.91464 1.245238,-1.17546 6.892078,-5.25507 7.273874,-5.25507 0.08841,0 0.188214,-0.0734 0.221779,-0.16313 0.05422,-0.14493 0.761582,-0.55346 2.898802,-1.67416 1.758844,-0.92229 3.315205,-1.4628 4.85168,-1.68493 1.757283,-0.25405 2.546273,0.0596 2.833539,1.12643 0.114462,0.42508 0.147088,1.15736 0.07607,1.70736 -0.137295,1.06324 -0.796677,3.22038 -1.245765,4.07545 -0.158657,0.30208 -0.288975,0.64536 -0.289597,0.76284 -5.29e-4,0.11748 -0.06292,0.24106 -0.138438,0.27462 -0.07552,0.0336 -0.370141,0.51416 -0.654711,1.06798 -0.284567,0.55383 -0.842023,1.50128 -1.238787,2.10545 -0.396767,0.60417 -0.769364,1.23697 -0.82799,1.40622 -0.05863,0.16925 -0.222062,0.35204 -0.36318,0.40619 -0.141121,0.0541 -0.256583,0.17964 -0.256583,0.27885 0,0.25267 -2.495272,3.53193 -4.302172,5.65389 -2.499637,2.93547 -7.259475,7.67597 -9.962763,9.92228 -0.545309,0.45313 -1.080826,0.90736 -1.190032,1.0094 -0.10921,0.10203 -0.65169,0.53382 -1.205514,0.95953 -0.553825,0.42571 -1.093321,0.84487 -1.198885,0.93147 -0.330488,0.27113 -2.147358,1.54109 -3.103546,2.16932 -0.503479,0.3308 -1.038993,0.68637 -1.190035,0.79017 -0.44372,0.30492 -2.245728,1.28161 -2.792006,1.51326 -0.27691,0.11742 -0.503475,0.27783 -0.503475,0.35644 0,0.0786 -0.09053,0.14295 -0.201184,0.14295 -0.110651,0 -0.460796,0.1199 -0.7781,0.26644 -2.246934,1.03772 -4.62956,1.46051 -5.7294,1.01668 z"
       id="path867"
       inkscape:export-filename="/home/diegton/gamesDevelopment/autoRTS/public/images/gold_icon.png"
       inkscape:export-xdpi="96"
       inkscape:export-ydpi="96" />
    <path
       style="fill:#ffe680;stroke:#e4c400;stroke-width:3.26498;stroke-linejoin:round;stroke-opacity:1"
       d="m 66.806415,31.644745 c -1.10167,-0.0326 -2.09031,-0.12812 -2.19699,-0.21235 -0.10667,-0.0842 -1.08924,-0.21101 -2.18349,-0.28175 -2.05918,-0.13312 -2.86214,-0.34954 -2.86214,-0.77143 0,-0.13488 0.0786,-0.24524 0.17479,-0.24524 0.0961,0 0.23045,-0.30895 0.29849,-0.68656 0.068,-0.3776 0.19593,-0.77807 0.28419,-0.88992 0.30673,-0.38872 0.52928,-3.01813 0.34977,-4.13273 -0.20497,-1.27281 -0.4351,-1.61496 -2.37608,-3.53277 l -1.47864,-1.46098 0.9618,-0.23114 c 1.61498,-0.38811 4.6686,-0.78778 7.46123,-0.97655 1.46008,-0.0987 3.21234,-0.26033 3.8939,-0.35919 1.59909,-0.23195 5.46975,-0.23069 7.35615,0.002 0.81079,0.10018 2.66878,0.26286 4.12886,0.36151 3.54274,0.23936 8.70646,1.01828 9.79489,1.47751 0.20139,0.085 0.65452,0.21 1.00696,0.27783 0.35243,0.0678 0.72317,0.18671 0.82387,0.26415 0.10069,0.0774 0.46873,0.20198 0.81786,0.27676 0.34913,0.0748 0.76106,0.20366 0.91541,0.28641 0.15435,0.0827 0.81615,0.37892 1.47067,0.65816 0.65451,0.27925 1.21749,0.57182 1.25106,0.65015 0.0336,0.0783 0.157143,0.14577 0.274623,0.14986 0.30169,0.0105 1.391084,0.97195 1.794401,1.58365 0.186517,0.2829 0.339677,0.72362 0.340337,0.97939 0.001,0.50527 -0.993934,1.69119 -1.921138,2.2892 -0.750473,0.48402 -2.887213,1.54755 -3.112403,1.54915 -0.1007,8e-4 -0.4041,0.11662 -0.67423,0.25755 -0.27013,0.14093 -0.76445,0.30999 -1.09849,0.3757 -0.33404,0.0657 -0.77212,0.19719 -0.97352,0.2922 -0.41324,0.19495 -2.43553,0.63413 -4.48551,0.97411 -0.75521,0.12525 -1.4967,0.27906 -1.64774,0.34181 -0.32073,0.13323 -3.51107,0.45167 -6.77404,0.67615 -2.21633,0.15247 -7.50581,0.17841 -11.61485,0.057 z"
       id="path871"
       inkscape:export-filename="/home/diegton/gamesDevelopment/autoRTS/public/images/gold_icon.png"
       inkscape:export-xdpi="96"
       inkscape:export-ydpi="96" />
    <path
       style="fill:#ffe680;stroke:#e4c400;stroke-width:3.26498;stroke-linejoin:round;stroke-opacity:1"
       d="m 24.383075,61.457485 c -0.20139,-0.0926 -1.394764,-1.20524 -2.651945,-2.47249 -1.8473,-1.8621 -2.205104,-2.3041 -1.865223,-2.3041 0.456621,0 2.125451,-0.47162 2.638092,-0.74554 0.17485,-0.0934 0.409522,-0.16987 0.521496,-0.16987 0.301038,0 3.361323,-1.49345 3.432512,-1.6751 0.03356,-0.0856 0.14637,-0.15572 0.250674,-0.15572 0.400394,0 6.241629,-3.82535 6.828507,-4.4719 0.100695,-0.11093 0.75979,-0.65148 1.464656,-1.20121 0.704866,-0.54973 1.487543,-1.17844 1.739281,-1.39713 3.985694,-3.4625 8.3244,-7.91696 11.302621,-11.60415 0.528669,-0.65452 1.0648,-1.30905 1.191405,-1.45451 0.934988,-1.07429 3.983374,-5.56638 3.983374,-5.86988 0,-0.0833 0.06179,-0.17893 0.137311,-0.21249 0.07552,-0.0336 0.265234,-0.30819 0.421587,-0.61028 0.156353,-0.30208 0.461055,-0.87879 0.677122,-1.28157 0.216064,-0.40278 0.567819,-1.14426 0.781679,-1.64774 0.213858,-0.50348 0.506458,-1.17502 0.650223,-1.49233 0.14377,-0.3173 0.26139,-0.74497 0.26139,-0.95037 0,-0.20541 0.0729,-0.41851 0.16196,-0.47356 0.0891,-0.055 0.21771,-0.47185 0.28584,-0.92622 0.0681,-0.45436 0.1522,-0.82612 0.1868,-0.82612 0.0346,0 1.02633,0.96805 2.20382,2.15122 2.3746,2.38603 2.97201,3.35312 2.67466,4.32972 -0.0951,0.31225 -0.22358,0.89728 -0.28558,1.30006 -0.10968,0.71257 -0.42164,1.6268 -0.93708,2.74623 -0.13909,0.30209 -0.33643,0.75521 -0.43852,1.00695 -0.19149,0.47217 -0.93221,1.78078 -1.98134,3.50036 -0.33057,0.54183 -0.70132,1.14993 -0.82387,1.35132 -0.12255,0.20139 -0.3258,0.43205 -0.45167,0.51257 -0.12587,0.0805 -0.22885,0.22091 -0.22885,0.31196 0,0.15208 -1.707313,2.47014 -3.02086,4.10151 -2.929327,3.6381 -7.614418,8.36235 -12.094128,12.19522 -1.217504,1.04171 -3.747894,2.93789 -5.20714,3.90204 -0.855908,0.56552 -1.657001,1.11404 -1.780201,1.21893 -0.123201,0.10489 -0.411557,0.27312 -0.640789,0.37383 -0.22923,0.10071 -0.663946,0.34126 -0.966031,0.53456 -0.90329,0.57799 -2.505705,1.3347 -4.283162,2.02263 -1.087697,0.42098 -3.558924,0.64977 -4.138621,0.38317 z"
       id="path869"
       inkscape:export-filename="/home/diegton/gamesDevelopment/autoRTS/public/images/gold_icon.png"
       inkscape:export-xdpi="96"
       inkscape:export-ydpi="96" />
  </g>
</svg>
